<svg xmlns="http://www.w3.org/2000/svg" xml:space="preserve" width="96" height="96" id="loader">
  <switch>
    <g>
      <path d="M28 48a4 4 0 0 0-4-4H8a4 4 0 0 0 0 8h16a4 4 0 0 0 4-4zm60-4H72a4 4 0 0 0 0 8h16a4 4 0 0 0 0-8zM48 4a4 4 0 0 0-4 4v16a4 4 0 0 0 8 0V8a4 4 0 0 0-4-4zm0 64a4 4 0 0 0-4 4v16a4 4 0 0 0 8 0V72a4 4 0 0 0-4-4zm-19.8-5.857L16.889 73.455a4 4 0 1 0 5.656 5.658l11.313-11.314a4 4 0 1 0-5.658-5.656zm39.6-28.285 11.312-11.312a4 4 0 0 0 0-5.657 3.997 3.997 0 0 0-5.654 0L62.143 28.201a4 4 0 0 0 5.657 5.657zM22.544 16.887a4 4 0 1 0-5.656 5.657L28.2 33.858a4.002 4.002 0 0 0 5.658-5.657L22.544 16.887zM67.8 62.143a4 4 0 0 0-5.657 5.656l11.313 11.314a3.998 3.998 0 0 0 5.655 0 4.003 4.003 0 0 0 0-5.658L67.8 62.143z"></path>
    </g>
  </switch>
</svg>
